Coordinates
version=1
nRows=54
nColumns=12
inDegrees=yes

Units are S.I. units (second, meters, Newtons, ...)
Angles are in degrees

endheader
time	SC_y	SC_z	SC_x	AC_y	AC_z	AC_x	GH_y	GH_z	GH_yy	EL_x	PS_y
       0.0              -32.65          17.95          51.75          45.24         -10.16          17.42         -83.87         -10.54         -146.8          35.35          144.8
   0.02584              -32.65          17.95          51.74          45.24         -10.16          17.41         -83.88         -10.53         -146.8          35.34          144.8
   0.05169              -32.65          17.95          51.74          45.25         -10.16          17.41         -83.89         -10.52         -146.8          35.34          144.7
   0.07753              -32.66          17.95          51.74          45.25         -10.16          17.41         -83.89         -10.52         -146.8          35.34          144.7
    0.1034              -32.66          17.94          51.73          45.26         -10.16          17.41          -83.9         -10.51         -146.8          35.34          144.7
    0.1292              -32.67          17.94          51.73          45.26         -10.16           17.4          -83.9          -10.5         -146.8          35.34          144.7
    0.1551              -32.67          17.94          51.73          45.26         -10.16           17.4         -83.91         -10.49         -146.7          35.33          144.7
    0.1809              -32.67          17.93          51.72          45.27         -10.16           17.4         -83.92         -10.48         -146.7          35.33          144.6
    0.2067              -32.68          17.93          51.72          45.28         -10.16          17.39         -83.93         -10.47         -146.7          35.33          144.6
    0.2326              -32.69          17.93          51.71          45.28         -10.16          17.39         -83.94         -10.46         -146.7          35.33          144.6
    0.2584              -32.69          17.92          51.71          45.29         -10.16          17.39         -83.95         -10.44         -146.7          35.32          144.5
    0.2843               -32.7          17.92           51.7           45.3         -10.16          17.38         -83.96         -10.43         -146.6          35.32          144.5
    0.3101              -32.71          17.91          51.69           45.3         -10.16          17.38         -83.97         -10.41         -146.6          35.32          144.5
     0.336              -32.71          17.91          51.69          45.31         -10.16          17.37         -83.98          -10.4         -146.6          35.31          144.4
    0.3618              -32.72           17.9          51.68          45.32         -10.16          17.37         -83.99         -10.38         -146.5          35.31          144.4
    0.3876              -32.73           17.9          51.67          45.33         -10.16          17.36         -84.01         -10.36         -146.5           35.3          144.3
    0.4135              -32.74          17.89          51.66          45.34         -10.16          17.36         -84.02         -10.34         -146.5           35.3          144.3
    0.4393              -32.75          17.89          51.65          45.35         -10.16          17.35         -84.04         -10.32         -146.4          35.29          144.2
    0.4652              -32.76          17.88          51.64          45.36         -10.15          17.34         -84.06          -10.3         -146.4          35.29          144.2
     0.491              -32.78          17.87          51.63          45.38         -10.15          17.33         -84.08         -10.27         -146.3          35.28          144.1
    0.5169              -32.79          17.86          51.62          45.39         -10.15          17.33          -84.1         -10.24         -146.3          35.27          144.0
    0.5427              -32.81          17.85          51.61          45.41         -10.15          17.32         -84.13         -10.21         -146.2          35.26          143.9
    0.5685              -32.82          17.84          51.59          45.43         -10.15          17.31         -84.15         -10.18         -146.1          35.25          143.8
    0.5944              -32.84          17.83          51.58          45.45         -10.15          17.29         -84.18         -10.14         -146.1          35.24          143.7
    0.6202              -32.86          17.82          51.56          45.47         -10.15          17.28         -84.22         -10.09         -146.0          35.23          143.6
    0.6461              -32.89           17.8          51.54          45.49         -10.15          17.27         -84.25         -10.04         -145.9          35.22          143.5
    0.6719              -32.91          17.78          51.51          45.52         -10.15          17.25          -84.3         -9.991         -145.8          35.21          143.4
    0.6978              -32.94          17.77          51.49          45.55         -10.15          17.23         -84.34          -9.93         -145.7          35.19          143.2
    0.7236              -32.97          17.74          51.46          45.59         -10.14          17.21          -84.4         -9.861         -145.5          35.17          143.0
    0.7494              -33.01          17.72          51.43          45.63         -10.14          17.19         -84.46         -9.784         -145.4          35.15          142.8
    0.7753              -33.06          17.69          51.39          45.67         -10.14          17.16         -84.52         -9.695         -145.2          35.13          142.6
    0.8011              -33.11          17.66          51.35          45.73         -10.14          17.13          -84.6         -9.592         -145.0           35.1          142.3
     0.827              -33.16          17.63           51.3          45.79         -10.13          17.09         -84.69         -9.475         -144.8          35.07          142.0
    0.8528              -33.23          17.58          51.24          45.86         -10.13          17.05          -84.8         -9.338         -144.5          35.04          141.7
    0.8787              -33.31          17.53          51.17          45.94         -10.13           17.0         -84.92         -9.177         -144.2           35.0          141.3
    0.9045               -33.4          17.48          51.09          46.04         -10.12          16.95         -85.07         -8.988         -143.9          34.95          140.8
    0.9303              -33.51          17.41           51.0          46.16         -10.12          16.88         -85.24         -8.764         -143.4          34.89          140.2
    0.9562              -33.64          17.32          50.88          46.29         -10.11           16.8         -85.45         -8.495         -142.9          34.82          139.5
     0.982               -33.8          17.22          50.74          46.46          -10.1           16.7          -85.7         -8.169         -142.3          34.74          138.6
     1.008              -33.99           17.1          50.58          46.67         -10.09          16.58         -86.01         -7.771         -141.5          34.64          137.6
     1.034              -34.23          16.95          50.37          46.92         -10.08          16.43         -86.39          -7.28         -140.6          34.51          136.3
      1.06              -34.53          16.76          50.11          47.24         -10.07          16.24         -86.86         -6.668         -139.4          34.36          134.8
     1.085               -34.9          16.52          49.78          47.64         -10.05          16.01         -87.45         -5.897         -138.0          34.16          132.8
     1.111              -35.38          16.22          49.37          48.14         -10.02          15.71         -88.21         -4.916         -136.1          33.91          130.2
     1.137              -35.99          15.84          48.84          48.79         -9.993          15.33         -89.18         -3.661         -133.7          33.59          127.0
     1.163              -36.77          15.34          48.15          49.62         -9.953          14.85         -90.42         -2.051         -130.6          33.17          122.8
     1.189              -37.77          14.71          47.28          50.68         -9.903          14.22         -92.01       0.006104         -126.7          32.65          117.5
     1.215              -39.02          13.91          46.19          52.02          -9.84          13.44          -94.0          2.593         -121.7          31.99          110.8
      1.24              -40.55          12.94          44.86          53.64         -9.763          12.49         -96.43          5.745         -115.7          31.18          102.6
     1.266              -42.33          11.82          43.31          55.53         -9.674          11.38         -99.25          9.398         -108.7          30.25          93.13
     1.292              -44.25           10.6          41.63          57.57         -9.578          10.18         -102.3          13.35         -101.2          29.23          82.88
     1.318              -46.17          9.381          39.96          59.61         -9.481          8.986         -105.4          17.31         -93.59          28.22          72.62
     1.344              -47.94          8.257          38.41           61.5         -9.392          7.881         -108.2          20.96          -86.6          27.29          63.16
      1.37              -49.47          7.287          37.08          63.13         -9.315          6.927         -110.6          24.12         -80.57          26.48          54.99
